<svg width="126" height="126" viewBox="0 0 126 126" fill="none" xmlns="http://www.w3.org/2000/svg">
<path d="M68.332 57.3522C69.417 58.4395 70.1554 59.824 70.4539 61.3307C70.7524 62.8375 70.5976 64.399 70.009 65.8178C69.4204 67.2366 68.4245 68.4492 67.1471 69.3022C65.8697 70.1553 64.3681 70.6106 62.832 70.6106C61.296 70.6106 59.7944 70.1553 58.517 69.3022C57.2395 68.4492 56.2436 67.2366 55.655 65.8178C55.0664 64.399 54.9116 62.8375 55.2101 61.3307C55.5086 59.824 56.247 58.4395 57.332 57.3522C58.0531 56.6277 58.9101 56.0528 59.854 55.6606C60.7978 55.2683 61.8099 55.0664 62.832 55.0664C63.8541 55.0664 64.8662 55.2683 65.81 55.6606C66.7539 56.0528 67.611 56.6277 68.332 57.3522" fill="#EBA500"/>
<path d="M100.412 22.2825C100.412 19.0825 100.592 15.6125 98.3623 13.0525C97.7334 12.2714 96.9296 11.6491 96.016 11.2357C95.1023 10.8223 94.1043 10.6294 93.1024 10.6725C91.9966 10.6591 90.9046 10.9197 89.924 11.4309C88.9434 11.9422 88.1046 12.6882 87.4824 13.6025C86.1624 15.4725 85.8424 19.0325 85.8424 21.1825V28.0425C85.8424 33.0425 86.6624 35.6225 87.9424 37.1825C88.5505 37.9206 89.3138 38.5155 90.178 38.9251C91.0422 39.3347 91.986 39.549 92.9424 39.5525C94.5711 39.5204 96.1534 39.0038 97.4874 38.0688C98.8214 37.1338 99.8466 35.8226 100.432 34.3025L100.412 22.2825ZM105.262 43.7625C104.022 48.6925 98.7224 52.6225 93.2624 52.6225C88.5524 52.6225 84.9924 49.6225 84.9924 45.7725C84.9612 45.3146 85.0223 44.8552 85.172 44.4214C85.3216 43.9876 85.5568 43.5882 85.8636 43.2469C86.1703 42.9056 86.5425 42.6294 86.958 42.4345C87.3735 42.2397 87.8238 42.1302 88.2824 42.1125C89.1072 42.1125 89.8982 42.4402 90.4815 43.0234C91.0647 43.6066 91.3924 44.3977 91.3924 45.2225C91.411 45.6301 91.3442 46.0372 91.1964 46.4175C91.0486 46.7978 90.8229 47.1431 90.5339 47.4312C90.2448 47.7192 89.8989 47.9438 89.518 48.0903C89.1372 48.2369 88.7299 48.3024 88.3224 48.2825C87.6468 48.2739 86.9916 48.0496 86.4524 47.6425C87.0143 48.9132 87.9494 49.9831 89.1335 50.71C90.3177 51.437 91.6949 51.7865 93.0824 51.7125C94.6578 51.715 96.1989 51.2523 97.5124 50.3825C98.5089 49.6459 99.2838 48.6496 99.7524 47.5025C100.302 46.1825 100.432 45.2725 100.432 42.1125V36.2825C99.8082 37.3293 98.9699 38.2323 97.9724 38.9325C96.4047 39.9846 94.5499 40.526 92.6624 40.4825C90.1993 40.3999 87.8142 39.5984 85.801 38.1769C83.7878 36.7554 82.2344 34.776 81.3324 32.4825C80.7069 30.5182 80.4129 28.4634 80.4624 26.4025V23.8425C80.4624 19.1425 81.4624 15.5725 84.8524 12.7425C87.1366 10.7352 90.0816 9.6419 93.1224 9.6725C98.5624 9.6725 103.502 13.1025 105.002 17.8625C105.782 20.1925 105.872 21.2425 105.872 25.5325L105.922 36.1425C106.018 38.7023 105.803 41.2644 105.282 43.7725" fill="#EBA500"/>
<path d="M60.7322 7.59229C58.4622 5.33229 56.1422 2.74228 52.7322 2.52228C51.7385 2.41218 50.7329 2.53565 49.7954 2.88288C48.8578 3.2301 48.0144 3.79148 47.3322 4.52228C46.5417 5.29647 45.9539 6.2534 45.6208 7.30854C45.2877 8.36367 45.2194 9.48453 45.4221 10.5723C45.8121 12.8323 48.1121 15.5723 49.6321 17.0923L54.4722 21.9423C58.0322 25.5023 60.4722 26.7223 62.4722 26.9423C63.4207 27.0335 64.3776 26.9161 65.2759 26.5983C66.1743 26.2804 66.9921 25.7698 67.6721 25.1023C68.7992 23.9286 69.5522 22.4464 69.8353 20.844C70.1184 19.2416 69.9189 17.5911 69.2621 16.1023L60.7322 7.59229ZM79.3422 19.3523C81.9622 23.7223 80.9921 30.2423 77.1121 34.1223C73.7821 37.4523 69.1621 37.8723 66.4221 35.1223C66.0759 34.8213 65.7939 34.4537 65.5927 34.0414C65.3915 33.6291 65.2754 33.1805 65.2511 32.7224C65.2268 32.2643 65.295 31.806 65.4515 31.3748C65.6081 30.9435 65.8497 30.5482 66.1622 30.2123C66.7451 29.6316 67.5344 29.3055 68.3572 29.3055C69.18 29.3055 69.9692 29.6316 70.5521 30.2123C70.8546 30.486 71.0964 30.8201 71.2618 31.193C71.4273 31.5659 71.5128 31.9693 71.5128 32.3773C71.5128 32.7852 71.4273 33.1887 71.2618 33.5616C71.0964 33.9345 70.8546 34.2686 70.5521 34.5423C70.0662 35.0139 69.4428 35.3186 68.7722 35.4123C70.0688 35.913 71.4869 36.008 72.8387 35.6848C74.1905 35.3616 75.4123 34.6354 76.3422 33.6023C77.4567 32.4906 78.2185 31.0749 78.5322 29.5323C78.7225 28.3073 78.5667 27.0534 78.0822 25.9123C77.5322 24.5923 76.9821 23.8423 74.7521 21.6223L70.6522 17.5123C70.9466 18.6968 70.9909 19.9297 70.7822 21.1323C70.4224 22.9843 69.4964 24.6791 68.1321 25.9823C66.3246 27.6643 64.0646 28.7811 61.6304 29.1951C59.1963 29.6091 56.6941 29.3022 54.4321 28.3123C52.5992 27.3631 50.9367 26.1161 49.5121 24.6223L47.7122 22.8123C44.3822 19.4823 42.6022 16.2223 42.9522 11.8123C43.1605 8.78364 44.4736 5.93683 46.6422 3.81229C50.4822 -0.0277104 56.4022 -1.0977 60.8322 1.2023C63.0222 2.2923 63.8322 2.9723 66.8322 6.0123L74.3621 13.4823C76.24 15.221 77.8989 17.1821 79.3021 19.3223" fill="#EBA500"/>
<path d="M22.2822 25.2812C19.0822 25.2812 15.6122 25.0912 13.0522 27.2812C12.2705 27.9096 11.6478 28.7133 11.2343 29.6271C10.8208 30.5409 10.6282 31.5392 10.6722 32.5412C10.6588 33.647 10.9194 34.7389 11.4307 35.7195C11.9419 36.7002 12.688 37.539 13.6022 38.1612C15.4722 39.4812 19.0322 39.8012 21.1822 39.8012H28.0422C33.0422 39.8012 35.6322 38.9812 37.1822 37.7012C37.9202 37.093 38.5152 36.3297 38.9249 35.4655C39.3345 34.6013 39.5487 33.6575 39.5522 32.7012C39.5214 31.0721 39.0055 29.4893 38.0703 28.155C37.135 26.8208 35.8231 25.7958 34.3022 25.2112L22.2822 25.2812ZM43.7622 20.4312C48.6922 21.6712 52.6222 26.9712 52.6222 32.4312C52.6222 37.1412 49.6222 40.7012 45.7722 40.7012C45.3144 40.7323 44.855 40.6712 44.4211 40.5215C43.9873 40.3719 43.5879 40.1367 43.2466 39.83C42.9054 39.5232 42.6291 39.1511 42.4343 38.7356C42.2394 38.3201 42.1299 37.8698 42.1122 37.4112C42.1122 36.5864 42.4399 35.7953 43.0231 35.2121C43.6064 34.6289 44.3974 34.3012 45.2222 34.3012C45.6299 34.2826 46.0369 34.3494 46.4172 34.4972C46.7976 34.645 47.1428 34.8707 47.4309 35.1597C47.719 35.4487 47.9435 35.7947 48.0901 36.1755C48.2367 36.5564 48.3022 36.9636 48.2822 37.3712C48.2723 38.0466 48.0481 38.7014 47.6422 39.2412C48.9121 38.6781 49.9811 37.7428 50.7079 36.5589C51.4346 35.375 51.7849 33.9984 51.7122 32.6112C51.7148 31.0358 51.2521 29.4947 50.3822 28.1812C49.6487 27.1818 48.6515 26.4061 47.5022 25.9412C46.1822 25.3912 45.2722 25.2612 42.1122 25.2612H36.3122C37.359 25.8853 38.2621 26.7237 38.9622 27.7212C40.0144 29.2889 40.5558 31.1437 40.5122 33.0312C40.4296 35.4943 39.6281 37.8794 38.2066 39.8926C36.7851 41.9058 34.8057 43.4591 32.5122 44.3612C30.5479 44.9867 28.4931 45.2807 26.4322 45.2312H23.8722C19.1722 45.2312 15.6022 44.1812 12.7722 40.8412C10.7665 38.556 9.6735 35.6116 9.70221 32.5712C9.70221 27.1312 13.1322 22.1912 17.8922 20.6812C20.2222 19.9112 21.2722 19.8212 25.5622 19.8212H36.1722C38.7322 19.72 41.2948 19.935 43.8022 20.4612" fill="#EBA500"/>
<path d="M7.59232 64.95C5.33232 67.22 2.74231 69.54 2.52231 72.95C2.41221 73.9437 2.53568 74.9494 2.88291 75.8869C3.23013 76.8244 3.79151 77.6678 4.52231 78.3501C5.29137 79.1328 6.23992 79.7159 7.28556 80.0488C8.33119 80.3816 9.44228 80.4541 10.5223 80.26C12.7823 79.87 15.5223 77.5701 17.0523 76.0501L21.8923 71.21C25.4423 67.65 26.6723 65.26 26.8923 63.26C26.9844 62.3106 26.8664 61.3526 26.5467 60.4539C26.2269 59.5553 25.7133 58.738 25.0423 58.0601C23.87 56.9306 22.3877 56.1761 20.7847 55.8929C19.1817 55.6097 17.5307 55.8106 16.0423 56.4701L7.59232 64.95ZM19.3523 46.34C23.7123 43.72 30.2423 44.69 34.1223 48.57C37.4523 51.9 37.8723 56.57 35.1223 59.26C34.8213 59.6062 34.4536 59.8883 34.0414 60.0895C33.6291 60.2907 33.1806 60.4069 32.7224 60.4311C32.2643 60.4554 31.806 60.3872 31.3748 60.2307C30.9436 60.0742 30.5482 59.8325 30.2123 59.52C29.6316 58.9371 29.3055 58.1478 29.3055 57.325C29.3055 56.5022 29.6316 55.7129 30.2123 55.13C30.4861 54.8276 30.8201 54.5858 31.193 54.4204C31.5659 54.2549 31.9693 54.1695 32.3773 54.1695C32.7852 54.1695 33.1887 54.2549 33.5616 54.4204C33.9345 54.5858 34.2686 54.8276 34.5423 55.13C35.0139 55.616 35.3186 56.2394 35.4123 56.9101C35.913 55.6135 36.0081 54.1954 35.6848 52.8435C35.3616 51.4917 34.6354 50.2699 33.6023 49.34C32.4907 48.2255 31.0749 47.4637 29.5323 47.15C28.3073 46.9597 27.0535 47.1156 25.9123 47.6001C24.5923 48.1501 23.8423 48.7001 21.6223 50.9301L17.5123 55.0301C18.6968 54.7356 19.9297 54.6913 21.1323 54.9C22.9844 55.2598 24.6791 56.1858 25.9823 57.5501C27.665 59.3574 28.7814 61.618 29.1937 64.0527C29.606 66.4874 29.2961 68.9895 28.3023 71.25C27.3605 73.085 26.1165 74.7483 24.6223 76.1701L22.8123 77.9701C19.4823 81.3001 16.2223 83.0801 11.8123 82.7301C8.78408 82.5199 5.93792 81.2071 3.81229 79.0401C-0.0277104 75.2001 -1.0977 69.2801 1.2023 64.8501C2.2923 62.6601 2.9723 61.8501 6.0123 58.8501L13.4823 51.32C15.221 49.4422 17.1821 47.7833 19.3223 46.38" fill="#EBA500"/>
<path d="M25.2624 103.402C25.2624 106.602 25.0824 110.072 27.3224 112.632C27.9493 113.413 28.7512 114.036 29.6633 114.449C30.5753 114.863 31.5719 115.056 32.5724 115.012C33.6797 115.027 34.7734 114.766 35.7557 114.255C36.7381 113.744 37.5786 112.998 38.2024 112.082C39.5224 110.212 39.8424 106.642 39.8424 104.502V97.6425C39.8424 92.6425 39.0224 90.0624 37.7424 88.5024C37.1333 87.7654 36.3698 87.1712 35.5059 86.7617C34.6419 86.3522 33.6985 86.1373 32.7424 86.1324C31.1119 86.1626 29.5275 86.6782 28.1915 87.6133C26.8556 88.5485 25.8288 89.8608 25.2424 91.3824L25.2624 103.402ZM20.4224 81.9225C21.6524 76.9925 26.9524 73.0625 32.4224 73.0625C37.1324 73.0625 40.6924 76.0625 40.6924 79.9125C40.7235 80.3698 40.6624 80.8287 40.5126 81.262C40.3629 81.6952 40.1275 82.094 39.8206 82.4344C39.5137 82.7749 39.1415 83.0502 38.7261 83.244C38.3107 83.4378 37.8605 83.5461 37.4024 83.5625C36.5793 83.5625 35.7898 83.2362 35.2068 82.6551C34.6239 82.074 34.2951 81.2856 34.2924 80.4625C34.2738 80.0548 34.3406 79.6478 34.4884 79.2675C34.6362 78.8871 34.8619 78.5419 35.1509 78.2538C35.44 77.9657 35.7859 77.7412 36.1667 77.5946C36.5476 77.448 36.9548 77.3825 37.3624 77.4025C38.0377 77.4124 38.6926 77.6366 39.2324 78.0425C38.6694 76.7726 37.734 75.7035 36.5501 74.9767C35.3662 74.25 33.9897 73.8998 32.6024 73.9725C31.0285 73.9699 29.4882 74.4289 28.1724 75.2925C27.1773 76.0305 26.4027 77.0264 25.9324 78.1725C25.3824 79.5025 25.2424 80.4125 25.2424 83.5625V89.3725C25.8728 88.3272 26.714 87.4247 27.7124 86.7225C29.273 85.6632 31.127 85.121 33.0124 85.1725C35.4761 85.2526 37.8624 86.053 39.876 87.4749C41.8897 88.8967 43.4425 90.8776 44.3424 93.1725C44.9679 95.1368 45.2619 97.1915 45.2124 99.2524V101.812C45.2124 106.512 44.2124 110.082 40.8324 112.912C38.5431 114.917 35.5949 116.006 32.5524 115.972C27.1224 115.972 22.1824 112.552 20.6724 107.792C19.9024 105.462 19.8124 104.412 19.8124 100.122V89.5125C19.7112 86.9525 19.9262 84.3898 20.4524 81.8824" fill="#EBA500"/>
<path d="M64.952 118.091C67.212 120.351 69.542 122.941 72.952 123.161C73.9456 123.271 74.9513 123.148 75.8888 122.8C76.8263 122.453 77.6698 121.892 78.352 121.161C79.1429 120.387 79.7303 119.43 80.0618 118.375C80.3933 117.319 80.4586 116.198 80.252 115.111C79.872 112.851 77.572 110.111 76.052 108.591L71.202 103.741C67.652 100.181 65.262 98.961 63.262 98.741C62.312 98.6503 61.3537 98.7679 60.4538 99.0857C59.554 99.4035 58.7343 99.9138 58.052 100.581C56.9277 101.756 56.1775 103.239 55.8962 104.841C55.6149 106.443 55.8153 108.093 56.472 109.581L64.952 118.091ZM46.342 106.331C43.722 101.961 44.692 95.441 48.572 91.561C51.892 88.231 56.512 87.811 59.262 90.561C59.607 90.8628 59.888 91.2307 60.0883 91.6429C60.2887 92.0552 60.4044 92.5034 60.4287 92.9611C60.4529 93.4188 60.3852 93.8768 60.2295 94.3079C60.0737 94.739 59.8332 95.1345 59.522 95.471C58.9391 96.0517 58.1498 96.3778 57.327 96.3778C56.5042 96.3778 55.7149 96.0517 55.132 95.471C54.8295 95.1973 54.5878 94.8632 54.4223 94.4903C54.2569 94.1174 54.1713 93.714 54.1713 93.306C54.1713 92.8981 54.2569 92.4946 54.4223 92.1217C54.5878 91.7488 54.8295 91.4147 55.132 91.141C55.6299 90.6654 56.2684 90.3637 56.952 90.281C55.6571 89.7797 54.2403 89.6843 52.8899 90.0076C51.5395 90.3309 50.3195 91.0576 49.392 92.091C48.2738 93.2014 47.5085 94.6173 47.192 96.161C47.01 97.387 47.1692 98.6395 47.652 99.781C48.192 101.101 48.752 101.851 50.972 104.071L55.082 108.181C54.7875 106.997 54.7432 105.764 54.952 104.561C55.3048 102.706 56.2319 101.01 57.602 99.711C59.4096 98.029 61.6695 96.9122 64.1037 96.4982C66.5379 96.0842 69.04 96.3911 71.302 97.381C73.13 98.3332 74.7889 99.5799 76.212 101.071L78.022 102.881C81.352 106.211 83.132 109.471 82.772 113.881C82.5681 116.909 81.2584 119.756 79.092 121.881C75.242 125.721 69.332 126.791 64.902 124.491C62.702 123.401 61.902 122.721 58.902 119.681L51.372 112.211C49.4912 110.475 47.832 108.514 46.432 106.371" fill="#EBA500"/>
<path d="M103.402 100.412C106.602 100.412 110.072 100.602 112.632 98.4121C113.414 97.7836 114.037 96.98 114.45 96.0662C114.864 95.1524 115.056 94.1541 115.012 93.152C115.026 92.0462 114.765 90.9543 114.254 89.9737C113.743 88.9931 112.997 88.1542 112.082 87.5321C110.212 86.2121 106.642 85.892 104.492 85.892H97.6423C92.6423 85.892 90.0523 86.7121 88.5023 87.9921C87.7629 88.5997 87.1664 89.3627 86.7551 90.2268C86.3437 91.0909 86.1277 92.0351 86.1223 92.9921C86.1552 94.622 86.6731 96.2051 87.61 97.5392C88.547 98.8733 89.8603 99.8979 91.3823 100.482L103.402 100.412ZM81.9523 105.282C77.0123 104.042 73.0923 98.7421 73.0923 93.2821C73.0923 88.5721 76.0923 85.012 79.9423 85.012C80.3996 84.9809 80.8586 85.0421 81.2918 85.1918C81.7251 85.3416 82.1237 85.5769 82.4642 85.8838C82.8047 86.1907 83.08 86.563 83.2738 86.9784C83.4676 87.3938 83.5759 87.844 83.5923 88.3021C83.5923 89.1252 83.266 89.9147 82.6849 90.4976C82.1039 91.0806 81.3153 91.4094 80.4922 91.4121C80.0838 91.4321 79.6757 91.3664 79.2941 91.2192C78.9126 91.072 78.5661 90.8466 78.2769 90.5574C77.9877 90.2682 77.7623 89.9217 77.6151 89.5402C77.4679 89.1586 77.4022 88.7505 77.4222 88.3421C77.4369 87.6675 77.6606 87.0141 78.0623 86.4721C76.7951 87.0378 75.7289 87.9741 75.0042 89.1575C74.2795 90.341 73.9302 91.7162 74.0023 93.1021C73.9997 94.676 74.4586 96.2162 75.3223 97.5321C76.0581 98.5293 77.0546 99.3044 78.2023 99.772C79.5323 100.322 80.4423 100.452 83.5923 100.452H89.4023C88.3533 99.8308 87.4496 98.992 86.7523 97.9921C85.6924 96.4275 85.147 94.5713 85.1923 92.6821C85.2762 90.2193 86.0781 87.8348 87.4995 85.8218C88.9208 83.8088 90.8995 82.2552 93.1923 81.3521C95.1564 80.7259 97.2113 80.4318 99.2723 80.4821H101.822C106.532 80.4821 110.102 81.5321 112.932 84.8721C114.935 87.1583 116.025 90.1027 115.992 93.142C115.992 98.582 112.562 103.522 107.812 105.032C105.482 105.802 104.432 105.892 100.132 105.892H89.5323C86.9902 105.999 84.4445 105.795 81.9523 105.282" fill="#EBA500"/>
<path d="M118.092 60.7297C120.352 58.4597 122.942 56.1397 123.162 52.7297C123.276 51.7358 123.155 50.729 122.807 49.7908C122.46 48.8527 121.896 48.0095 121.162 47.3297C120.393 46.547 119.444 45.9639 118.399 45.631C117.353 45.2981 116.242 45.2256 115.162 45.4197C112.902 45.8097 110.162 48.0998 108.642 49.6198L103.792 54.4697C100.242 58.0197 99.0121 60.4097 98.7921 62.4197C98.7 63.3692 98.818 64.3272 99.1377 65.2258C99.4574 66.1245 99.971 66.9418 100.642 67.6198C101.814 68.7492 103.297 69.5037 104.9 69.7869C106.503 70.0701 108.154 69.8691 109.642 69.2097L118.092 60.7297ZM106.332 79.3397C101.962 81.9497 95.442 80.9898 91.562 77.1098C88.232 73.7798 87.812 69.1097 90.562 66.4097C90.8637 66.0643 91.2319 65.783 91.6445 65.5827C92.0572 65.3824 92.506 65.2672 92.9641 65.2438C93.4222 65.2205 93.8802 65.2896 94.3111 65.4469C94.742 65.6043 95.1368 65.8467 95.4721 66.1597C95.7608 66.4477 95.9899 66.7898 96.1462 67.1665C96.3025 67.5431 96.383 67.9469 96.383 68.3547C96.383 68.7626 96.3025 69.1663 96.1462 69.543C95.9899 69.9196 95.7608 70.2618 95.4721 70.5498C95.1975 70.8509 94.8631 71.0914 94.4903 71.2559C94.1175 71.4205 93.7145 71.5055 93.307 71.5055C92.8995 71.5055 92.4965 71.4205 92.1237 71.2559C91.7509 71.0914 91.4166 70.8509 91.142 70.5498C90.6705 70.0638 90.3658 69.4404 90.272 68.7697C89.7707 70.0646 89.6754 71.4815 89.9987 72.8319C90.322 74.1823 91.0486 75.4023 92.082 76.3297C93.1924 77.4479 94.6083 78.2133 96.152 78.5297C97.3771 78.7153 98.6297 78.5596 99.772 78.0797C101.092 77.5297 101.842 76.9797 104.062 74.7497L108.172 70.6497C106.987 70.9442 105.755 70.9885 104.552 70.7797C102.699 70.4159 101.005 69.4866 99.702 68.1198C98.0191 66.3147 96.9023 64.0557 96.49 61.6225C96.0776 59.1893 96.3878 56.6885 97.382 54.4298C98.3238 52.5948 99.5678 50.9315 101.062 49.5097L102.872 47.6997C106.202 44.3797 109.462 42.5997 113.872 42.9497C116.902 43.1516 119.751 44.4657 121.872 46.6397C125.712 50.4797 126.782 56.3997 124.482 60.8197C123.392 63.0197 122.712 63.8197 119.672 66.8197L112.212 74.3497C110.47 76.2313 108.506 77.8936 106.362 79.2998" fill="#EBA500"/>
</svg>
